<?xml version="1.0" encoding="utf-8"?>
<!-- Generator: Adobe Illustrator 15.1.0, SVG Export Plug-In . SVG Version: 6.00 Build 0)  -->
<!DOCTYPE svg PUBLIC "-//W3C//DTD SVG 1.1//EN" "http://www.w3.org/Graphics/SVG/1.1/DTD/svg11.dtd">
<svg version="1.1" id="Layer_1" xmlns="http://www.w3.org/2000/svg" xmlns:xlink="http://www.w3.org/1999/xlink" x="0px" y="0px"
	 width="512px" height="512px" viewBox="0 0 512 512" enable-background="new 0 0 512 512" xml:space="preserve">
<radialGradient id="SVGID_1_" cx="256" cy="256" r="256" gradientUnits="userSpaceOnUse">
	<stop  offset="0" style="stop-color:#DFF0F2"/>
	<stop  offset="1" style="stop-color:#59BFC7"/>
</radialGradient>
<path fill="url(#SVGID_1_)" d="M512,482c0,16.568-13.432,30-30,30H30c-16.568,0-30-13.432-30-30V30C0,13.432,13.432,0,30,0h452
	c16.568,0,30,13.432,30,30V482z"/>
<rect x="234.251" y="23.602" fill="#B84D29" width="43.498" height="461.977"/>
<rect x="127.006" y="103.45" fill="#B84D29" width="257.987" height="43.498"/>
<g>
	<path fill="#AB4E15" d="M116.719,232.962c0,0-11.758-4.907-30.569,1.402c-18.811,6.309-29.785,10.163-34.096,12.968
		s-12.148,2.805-24.689,14.721c-12.541,11.917-16.068,17.174-18.812,28.39c-2.743,11.216-6.271,44.162,5.878,57.13
		c12.149,12.969,33.704,31.194,58.786,35.4c25.082,4.204,66.231,3.154,88.963-4.906c22.73-8.063,34.487-16.474,48.988-36.103
		c14.501-19.627,7.055-44.862,3.526-53.976c-3.526-9.112-11.364-15.421-18.811-22.43c-7.446-7.01-18.028-11.567-19.988-14.37
		c-1.959-2.806-11.757-10.516-19.202-11.918c-7.447-1.402-11.757-0.35-14.109-1.05C140.233,237.519,131.219,232.612,116.719,232.962
		"/>
	<path fill="#CC6520" d="M215.43,287.726c-3.528-9.111-11.366-15.42-18.812-22.431c-7.446-7.01-18.027-11.565-19.987-14.37
		c-1.96-2.805-11.905-9.944-19.351-11.347c-7.446-1.402-12.052-1.007-14.402-1.709c-2.352-0.701-11.463-4.6-25.424-5.17
		c0,0-11.758-4.907-30.569,1.402c-18.812,6.31-29.785,10.164-34.096,12.969c-4.311,2.804-12.149,2.804-24.69,14.721
		c-12.54,11.917-16.068,17.173-18.811,28.39c-0.56,2.287-1.149,5.486-1.634,9.226c1.542,0.421,3.35,0.643,5.161,0.238
		c4.703-1.052-5.879,9.113-2.352,16.474c3.527,7.359,4.703,2.103,5.095,6.308c0.392,4.206,1.959,11.566,4.31,11.566
		s5.487-1.402,7.055,0c1.567,1.401,1.959,10.864,8.23,11.565c6.271,0.702,10.581-4.205,14.108,1.052
		c3.527,5.258,0,12.618,9.014,14.02c9.013,1.403,24.69-7.359,31.352-4.556c6.663,2.805,7.838,10.864,18.812,12.617
		c10.974,1.753,12.149-5.608,21.554-7.009c9.406-1.403,25.474,4.906,32.92-5.257c7.446-10.165,16.46-5.259,22.338-9.115
		c5.878-3.854,7.838-15.771,12.149-16.472c4.312-0.701,9.015,0,10.582-4.557c1.567-4.557,0.783-8.762,4.311-12.268
		c3.395-3.374,7.866-1.233,8.197-1.066C220.335,302.138,217.322,292.613,215.43,287.726"/>
	<path fill="#B35831" d="M195.786,266.521c1.351-1.45-9.994-9.201-15.578-12.355c-5.395-3.045-18.812,4.031-21.555,6.836
		c-2.744,2.803-2.351,6.309-4.703,9.463c-2.351,3.154-11.758,8.061-14.893,8.061c-3.135,0-10.189,2.104-12.933,5.959
		c-2.744,3.856-5.094,3.856-6.271,6.66c-1.176,2.803,0.392,3.854-3.918,5.606c-4.312,1.753-12.149,5.959-15.285,5.608
		s-4.311,0-10.974,6.309c-6.662,6.309-21.946,13.319-25.866,20.68c-3.919,7.359-1.959,10.865-0.783,12.616
		c1.175,1.753,1.568-5.257,6.27-8.411c4.703-3.154,11.365-3.154,14.501-7.01c3.135-3.854,13.325-7.709,16.067-11.566
		c2.743-3.855,7.446-4.557,10.19-4.906c2.743-0.352,10.189-0.352,16.067-4.907c5.879-4.557,8.432-10.751,12.149-12.969
		c5.879-3.504,9.406-3.504,17.636-7.358c3.275-1.535,12.542-5.96,13.717-9.814C170.801,271.166,193.826,268.624,195.786,266.521"/>
	<path fill="#B35831" d="M34.81,305.865c0,0,7.054-15.071,11.366-19.628c4.311-4.558,11.366-5.258,14.5-9.113
		s3.135-8.061,7.446-12.267c4.31-4.207,14.5-12.268,17.244-12.969c2.744-0.701,6.271,1.401,9.405-0.701
		c3.136-2.103,1.176-4.556,5.488-8.411c4.311-3.856,13.62-9.567,16.459-9.814c7.055-0.613,26.453,4.25,25.866,5.258
		c-0.416,0.712-13.325,4.206-16.852,8.761c-3.527,4.558-4.702,6.309-7.446,7.01c-2.743,0.702-10.973,3.505-14.108,5.958
		c-3.136,2.455-14.893,7.361-17.244,10.516c-2.352,3.154-4.703,3.154-5.487,5.958s-4.312,7.361-7.447,8.763
		c-3.135,1.401-10.189,1.753-12.541,3.153C59.108,289.741,37.162,305.865,34.81,305.865"/>
	<path fill="#99421D" d="M15.02,275.196c1.016-1.468,3.723-5.783,6.466-3.68c2.743,2.103,7.054,1.401,10.582,0
		c3.526-1.402,8.229-3.505,15.284-3.154c7.054,0.35,21.554,1.4,41.15,7.711c19.595,6.309,25.082,11.915,31.744,12.266
		c6.662,0.352,13.325-0.7,19.596,5.258c6.27,5.959,7.053,9.465,13.324,12.969c6.271,3.505,16.069,9.813,19.987,18.576
		c3.919,8.763,8.231,5.958,8.231,14.37c0,8.411-0.588,9.464-2.94,7.71c-2.351-1.752-2.939-5.258-14.108-11.566
		c0,0-9.406-4.38-19.987-8.937c-10.582-4.557-25.279-10.34-30.765-13.494s-7.446-9.813-15.285-9.813
		c-7.837,0-9.013-5.608-16.459-8.763c-7.446-3.155-12.933-3.155-20.378-8.411c-7.447-5.258-9.014-8.062-22.339-9.814
		c-13.325-1.752-17.635,2.804-21.947,4.207C12.864,282.031,10.214,282.124,15.02,275.196"/>
	<path fill="#B35831" d="M59.892,248.033c0,0,12.15-4.556,20.379-4.556c8.23,0,31.745,5.607,35.663,8.06
		c3.919,2.454,14.109,0.352,27.042,5.959c12.932,5.607,19.595,13.319,25.865,13.319c6.27,0,9.014,2.804,13.325,7.71
		c4.311,4.907,12.934,9.813,12.934,19.979c0,10.164-1.96-2.103-18.421-8.411c-16.46-6.309-21.554-8.062-25.473-8.062
		s-7.838-0.352-11.365-4.907c-3.527-4.557-11.757-11.565-22.731-15.071c-10.973-3.504-19.595,2.104-25.083-3.154
		c-5.486-5.257-7.837-6.659-12.541-8.411C74.785,248.734,65.379,251.889,59.892,248.033"/>
	<path fill="#99421D" d="M104.961,304.813c-4.311,1.053-18.42,11.216-21.555,15.772c-3.136,4.557-6.663,5.257-12.542,7.359
		c-5.878,2.104-9.209,11.217-9.209,11.217l1.567,3.855l1.583-3.337c0.832-1.937,2.106-4.526,4.493-6.127
		c4.702-3.154,11.364-3.154,14.5-7.01s13.325-7.709,16.068-11.566c2.743-3.855,7.445-4.557,10.189-4.906
		C110.056,310.07,109.272,303.763,104.961,304.813"/>
	<path fill="#993D1C" d="M123.773,288.69l-0.244-0.255c-1.093-0.019-2.189-0.038-3.284-0.097
		c-6.663-0.351-12.149-5.957-31.744-12.266c-1.623-0.523-3.213-0.993-4.789-1.442l-1.089,0.391c0,0,20.771,8.763,24.689,11.565
		C111.231,289.392,120.246,291.143,123.773,288.69"/>
	<path fill="#993D1C" d="M159.806,283.882c0.422,0.14,0.86,0.285,1.321,0.442c-1.188-0.979-2.809-2.255-4.435-3.345
		c-3.136-2.104-8.23,0.352-11.757-1.051c-3.527-1.403-5.879-9.113-18.419-16.474c-10.985-6.448-21.669-3.213-24.151-2.312
		c4.246-0.306,9.195-0.864,14.745,0.909c10.974,3.506,19.204,10.515,22.731,15.071c3.527,4.556,7.446,4.907,11.364,4.907
		C153.708,281.014,157.26,282.476,159.806,283.882"/>
	<path fill="#B35830" d="M173.152,325.142c-3.918-8.763-13.716-15.071-19.987-18.576c-6.27-3.504-7.054-7.01-13.324-12.969
		c-6.271-5.958-12.934-4.906-19.596-5.258c-6.663-0.351-12.149-5.957-31.744-12.266c-19.596-6.311-34.096-7.361-41.15-7.711
		c-7.054-0.351-11.758,1.752-15.285,3.154c-3.527,1.401-7.838,2.103-10.581,0c-2.744-2.104-5.45,2.212-6.466,3.68
		c-1.111,1.601-1.808,2.813-2.194,3.735c2.272,0.751,6.234-0.888,9.248-2.685c4.64-2.766,18.812-4.031,26.062-1.927
		c6.176,1.791,33.115,7.886,45.46,14.72c12.345,6.836,38.407,15.071,53.104,25.587c14.695,10.515,29.393,19.978,31.743,32.595
		c2.353,1.754,2.94,0.701,2.94-7.71C181.383,331.1,177.072,333.904,173.152,325.142"/>
	<path fill="#99421D" d="M34.81,305.864c0,0,13.325-14.371,19.987-18.226l6.663-3.854l3.136,3.504c0,0-10.974,6.309-14.109,9.113
		C47.352,299.205,37.945,305.163,34.81,305.864"/>
	<path fill="#99421D" d="M70.081,284.484c0,0-6.787,1.284-4.702-2.453c2.428-4.354,14.113-14.077,19.595-18.227
		c10.19-7.71,25.083-10.515,30.177-16.122c5.095-5.608,18.419-8.412,27.433-9.464c0,0-18.811,10.164-20.378,13.318
		c-1.568,3.156-11.757,8.763-16.852,9.814c-5.095,1.053-11.366,4.906-15.676,8.062C85.366,272.567,70.081,284.484,70.081,284.484"/>
	<path fill="#99421D" d="M126.124,305.163c0,0,4.703-9.113,12.149-12.969c7.447-3.855,18.375-5.059,21.533-8.313
		c3.157-3.252,8.756-10.214,13.347-11.314c4.59-1.1,13.814,0.088,23.612-6.222c0,0-6.956-6.046-10.092-8.148
		c-3.135-2.103-17.439,5.607-24.102,12.618c-6.663,7.009-19.595,14.37-27.825,17.173c-8.229,2.806-16.852,13.67-16.852,13.67
		L126.124,305.163z"/>
	<path fill="#99421D" d="M79.487,250.487c4.703,1.752,7.055,3.153,12.542,8.411c5.486,5.258,14.108-0.35,25.082,3.154
		c10.974,3.506,19.204,10.515,22.731,15.071c3.527,4.556,7.446,4.907,11.364,4.907c3.919,0,9.014,1.753,25.474,8.062
		c10.33,3.958,14.947,10.261,16.955,11.897c0.008-2.347-0.658-5.809-3.63-9.796c-5.486-7.36-18.027-13.669-30.176-15.07
		c-12.148-1.401-11.757-8.063-23.906-15.421c-12.149-7.36-32.529-5.258-39.429-9.063s-13.87-7.061-17.398-5.658
		c-3.527,1.4-19.203,1.051-19.203,1.051l3.583,1.536C68.86,250.843,75.699,249.074,79.487,250.487"/>
	<path fill="#99421D" d="M77.255,318.004c4.376-3.234,9.185-5.235,12.983-9.112c4.397-4.49,9.041-7.101,15.061-9.583
		c0.443-0.184,0.414-1.143-0.147-1.157c-5.318-0.144-10.277,2.6-13.356,6.38c-2.161,2.652-3.868,5.22-6.715,7.391
		c-2.6,1.985-5.474,3.617-8.007,5.687C76.92,317.734,77.036,318.166,77.255,318.004"/>
	<path fill="#99421D" d="M45.282,287.986c1.689-1.393,3.121-2.865,5.045-4.027c0.952-0.574,1.924-1.107,2.958-1.557
		c0.971-0.425,1.931-0.636,2.705-1.318c0.315-0.277,0.264-0.988-0.24-1.057c-1.997-0.274-4.73,1.69-6.197,2.803
		c-1.793,1.358-3.48,2.976-4.474,4.894C45.027,287.822,45.124,288.116,45.282,287.986"/>
	<path fill="#99421D" d="M142.062,276.715c-3.842,1.424-8.172,1.695-11.923,3.147c-4.066,1.575-4.944,6.014-8.619,7.737
		c-1.092,0.513-0.644,3.088,0.581,2.514c3.666-1.721,4.919-5.728,8.182-8c3.647-2.54,8.458-2.226,11.998-4.755
		C142.488,277.208,142.408,276.586,142.062,276.715"/>
	<path fill="#99421D" d="M81.838,274.709c7.73,2.418,15.27,5.252,22.612,8.5c5.285,2.338,11.388,7.22,17.595,6.632
		c1.118-0.104,1.046-2.152-0.063-2.238c-7.002-0.545-12.875-4.283-19.164-6.861c-6.741-2.762-13.733-4.97-20.837-6.857
		C81.537,273.766,81.463,274.591,81.838,274.709"/>
	<path fill="#99421D" d="M84.933,281.865c-1.403-0.798-2.966-1.573-4.183-2.598c-1.478-1.246-0.851-2.702-1.247-4.249
		c-0.092-0.363-0.532-0.71-0.84-0.279c-0.887,1.238-0.792,3.385,0.202,4.56c1.284,1.518,4.121,2.272,5.904,3.152
		C85.044,282.586,85.144,281.986,84.933,281.865"/>
	<path fill="#99421D" d="M117.716,253.823c13.625-1.452,28.958,3.698,38.516,12.26c0.712,0.639,1.152-1.006,0.598-1.502
		c-9.719-8.707-25.301-14.309-39.142-11.774C117.202,252.896,117.211,253.877,117.716,253.823"/>
	<path fill="#99421D" d="M176.305,343.545c0.913,2.055,2.046,3.624,3.823,5.17c0.316,0.273,0.604-0.148,0.651-0.38
		c0.955-4.694,2.608-11.156-0.363-15.557c-1.914-2.833-4.822-4.991-6.694-7.931c-1.945-3.053-3.684-6.036-6.306-8.698
		c-4.522-4.589-10.329-7.852-15.612-11.663c-5.448-3.931-8.977-10.054-14.969-13.219c-0.941-0.496-1.252,1.637-0.365,2.098
		c5.212,2.716,8.544,8.5,13.22,12.032c4.467,3.375,9.42,6.209,13.77,9.714c4.811,3.88,7.211,8.54,10.629,13.291
		c2.429,3.376,6.092,6.572,6.66,10.703c0.191,1.383,0.323,4.351-0.309,5.629c-0.08,0.551-0.158,1.101-0.237,1.652
		c-1.841-0.4-2.985-1.477-3.434-3.23C176.527,342.707,176.166,343.229,176.305,343.545"/>
	<path fill="#99421D" d="M90.803,282.333c2.815,0.989,4.309,2.988,6.763,4.384c2.056,1.169,4.534,1.438,6.591,2.602
		c1.734,0.979,2.874,2.559,4.831,3.177c3.014,0.95,5.496,0.949,8.374,2.622c0.308,0.18,0.419-0.332,0.266-0.498
		c-1.371-1.478-2.781-2.402-4.805-3.106c-2.076-0.723-2.566,0.027-5.128-1.391c-0.733-0.405-1.255-1.127-1.988-1.549
		c-2.8-1.614-6.25-1.496-9.038-3.236c-2.095-1.309-3.233-2.819-5.787-3.452C90.637,281.824,90.604,282.263,90.803,282.333"/>
	<path fill="#99421D" d="M170.211,254.574c-3.391,0.263-6.327,2.764-9.195,4.227c-2.743,1.397-4.408,3.146-4.844,6.03
		c-0.093,0.613,0.626,1.432,1.042,0.567c0.695-1.44,0.968-2.99,2.211-4.192c0.933-0.901,2.218-1.451,3.323-2.166
		c2.449-1.581,4.517-3.333,7.512-4.074C170.421,254.926,170.393,254.56,170.211,254.574"/>
	<path fill="#E8956B" d="M35.067,305.749c3.392-6.012,5.208-13.712,10.812-18.431c0.226-0.19,0.055-0.844-0.275-0.597
		c-2.522,1.885-3.93,4.391-5.246,7.039c-1.918,3.859-3.946,7.725-5.601,11.679C34.686,305.607,34.915,306.021,35.067,305.749"/>
	<path fill="#99421D" d="M107.134,237.596c-2.47,0.689-4.528,2.816-6.361,4.355c-1.45,1.219-3.164,2.543-3.106,4.465
		c0.011,0.359,0.548,0.771,0.702,0.242c0.577-1.977,2.281-3.184,3.813-4.6c1.579-1.457,2.966-3.192,5.031-4.118
		C107.358,237.875,107.326,237.542,107.134,237.596"/>
	<path fill="#D97E41" d="M109.272,264.506c-5.327,0.178-14.108,3.506-14.892,8.062c-0.784,4.557,14.108,1.753,18.027,6.309
		c3.92,4.557,12.541,6.66,16.068-1.052C132.003,270.114,119.854,264.156,109.272,264.506"/>
	<path fill="#EA8B49" d="M111.664,266.38c-2.512,0.083-6.653,1.654-7.022,3.801c-0.37,2.149,6.652,0.827,8.501,2.975
		c1.848,2.15,5.913,3.142,7.576-0.494S116.653,266.216,111.664,266.38"/>
	<path fill="#99421D" d="M83.78,243.874c4.891,0.633,9.475,1.701,14.149,3.077c0.695,0.204,0.709-1.006,0.216-1.243
		c-2.134-1.033-4.621-1.208-6.994-1.49c-2.396-0.288-4.97-0.996-7.383-0.733C83.571,243.506,83.591,243.85,83.78,243.874"/>
	<path fill="#F5B169" d="M101.14,263.893c1.135,0,1.137-1.577,0-1.577C100.005,262.315,100.004,263.893,101.14,263.893"/>
	<path fill="#D97E41" d="M71.538,345.17c-4.545-6.396,21.43-9.111,35.404-24.901c5.515-6.23,11.18,4.27,20.125,6.428
		c8.944,2.157,37.266,8.63,36.521,17.261c-0.458,5.302-22.36,9.169-42.484,5.392C102.042,345.773,81.6,359.328,71.538,345.17"/>
	<path fill="#EA8B49" d="M89.569,339.764c-2.417-3.925,11.396-5.591,18.827-15.279c2.933-3.823,5.946,2.62,10.702,3.944
		c4.756,1.323,19.817,5.295,19.421,10.591c-0.244,3.253-11.891,5.626-22.593,3.309C105.79,340.135,94.919,348.45,89.569,339.764"/>
	<path fill="#F5B169" d="M77.625,318.307c1.135,0,1.137-1.578,0-1.578C76.491,316.729,76.49,318.307,77.625,318.307"/>
	<path fill="#D97E41" d="M70.851,295.772c-7.299-2.593-13.281-0.928-23.216,8.419c-10.333,9.722-11.144,23.229,0,23.229
		s33.599-9.967,33.214-20.26C80.612,300.828,78.857,298.617,70.851,295.772"/>
	<path fill="#EA8B49" d="M68.155,297.139c-3.835-1.361-6.978-0.488-12.198,4.424c-5.429,5.108-5.855,12.204,0,12.204
		s17.653-5.235,17.452-10.645C73.284,299.795,72.361,298.634,68.155,297.139"/>
	<path fill="#D97E41" d="M149.411,295.514c-1.852-4.91,12.345-7.483,20.575-4.678c8.23,2.808,23.515,17.071,23.809,21.867
		c0.294,4.793-2.369,10.219-20.869-0.818C157.642,302.764,151.175,300.191,149.411,295.514"/>
	<path fill="#EA8B49" d="M157.385,294.292c-1.021-2.707,6.808-4.126,11.347-2.579c4.539,1.548,12.967,9.415,13.13,12.059
		c0.162,2.644-1.306,5.636-11.509-0.451C161.924,298.289,158.358,296.87,157.385,294.292"/>
	<path fill="#D97E41" d="M43.5,281.331c-0.219-3.549-20.216-6.15-25.442,1.059c-5.224,7.209-2.177,12.658-1.742,19.699
		c0.436,7.044,8.273,12.073,9.58,2.516C27.202,295.048,43.936,288.372,43.5,281.331"/>
	<path fill="#EA8B49" d="M37.765,281.285c-0.118-1.91-10.882-3.311-13.694,0.569c-2.812,3.882-1.172,6.814-0.937,10.604
		c0.234,3.79,4.453,6.499,5.156,1.354C28.993,288.669,38,285.074,37.765,281.285"/>
	<path fill="#D37739" d="M59.373,265.207c-5.832,2.247-12.678-5.486-25.234,0.132c-12.556,5.617,3.146-11.246,20.268-13.18
		C82.319,249.005,84.27,255.617,59.373,265.207"/>
	<path fill="#EA8B49" d="M58.438,260.778c-3.208,1.236-6.975-3.017-13.881,0.073c-6.907,3.091,1.73-6.187,11.149-7.25
		C71.061,251.866,72.134,255.504,58.438,260.778"/>
	<path fill="#D37739" d="M156.521,242.601c-7.223-2.483-24.714-1.227-22.559,5.695c2.155,6.922,24.704,6.78,31.314,4.81
		C179.386,248.898,163.73,245.078,156.521,242.601"/>
	<path fill="#EA8B49" d="M147.199,243.581c-3.324-1.603-11.371-0.792-10.379,3.679c0.992,4.472,11.366,4.38,14.408,3.106
		C157.718,247.649,150.515,245.182,147.199,243.581"/>
	<path fill="#F0AE67" d="M101.435,274.496c2.269,0,2.273-3.154,0-3.154C99.165,271.342,99.161,274.496,101.435,274.496
		 M101.435,272.13c1.136,0,1.134,1.577,0,1.577C100.298,273.707,100.3,272.13,101.435,272.13"/>
	<path fill="#F0AE67" d="M114.171,271.166c2.27,0,2.273-3.154,0-3.154C111.902,268.012,111.898,271.166,114.171,271.166
		 M114.758,268.274c1.137,0,1.135,1.577,0,1.577C113.622,269.852,113.625,268.274,114.758,268.274"/>
	<path fill="#F0AE67" d="M118.482,275.196c-2.27,0-2.273,3.154,0,3.154C120.751,278.351,120.755,275.196,118.482,275.196
		 M118.286,277.563c-1.137,0-1.135-1.577,0-1.577C119.422,275.985,119.421,277.563,118.286,277.563"/>
	<path fill="#F0AE67" d="M163.943,290.442c-2.27,0-2.273,3.154,0,3.154C166.213,293.597,166.217,290.442,163.943,290.442
		 M164.139,292.633c-1.136,0-1.134-1.577,0-1.577C165.276,291.056,165.274,292.633,164.139,292.633"/>
	<path fill="#F0AE67" d="M155.517,299.905c2.271,0,2.274-3.154,0-3.154C153.248,296.751,153.244,299.905,155.517,299.905
		 M156.007,298.153v0.351c0,1.017-1.764,1.015-1.764,0v-0.351C154.243,297.137,156.007,297.139,156.007,298.153"/>
	<path fill="#F0AE67" d="M178.443,301.308c-2.27,0-2.273,3.154,0,3.154C180.713,304.462,180.716,301.308,178.443,301.308
		 M179.129,303.411c0,1.017-1.764,1.016-1.764,0v-0.35c0-1.018,1.764-1.015,1.764,0V303.411z"/>
	<path fill="#F0AE67" d="M112.016,322.161c-2.271,0-2.274,3.155,0,3.155C114.285,325.316,114.289,322.161,112.016,322.161
		 M111.624,325.229c-1.137,0-1.135-1.577,0-1.577C112.76,323.651,112.758,325.229,111.624,325.229"/>
	<path fill="#F0AE67" d="M102.022,324.967c-2.27,0-2.273,3.154,0,3.154C104.292,328.121,104.296,324.967,102.022,324.967
		 M102.609,327.332c-1.136,0-1.134-1.578,0-1.578C103.746,325.754,103.745,327.332,102.609,327.332"/>
	<path fill="#F0AE67" d="M130.631,332.501c-2.27,0-2.274,3.154,0,3.154C132.9,335.655,132.904,332.501,130.631,332.501
		 M131.219,334.692c-1.137,0-1.134-1.577,0-1.577C132.356,333.115,132.354,334.692,131.219,334.692"/>
	<path fill="#F0AE67" d="M95.752,333.904c-2.186,0-2.264,2.915-0.239,3.133c-0.665-0.348-0.526-1.469,0.435-1.469
		c0.832,0,1.047,0.842,0.662,1.294C97.966,336.182,97.686,333.904,95.752,333.904"/>
	<path fill="#F0AE67" d="M84.19,332.151c-2.27,0-2.273,3.154,0,3.154C86.46,335.306,86.464,332.151,84.19,332.151 M83.798,332.765
		c1.136,0,1.135,1.577,0,1.577C82.662,334.342,82.664,332.765,83.798,332.765"/>
	<path fill="#F0AE67" d="M117.502,338.46c-2.27,0-2.273,3.154,0,3.154C119.771,341.614,119.775,338.46,117.502,338.46 M117.502,341
		c-1.137,0-1.135-1.576,0-1.576C118.639,339.424,118.637,341,117.502,341"/>
	<path fill="#F0AE67" d="M145.523,331.976c-2.269,0-2.274,3.155,0,3.155C147.793,335.131,147.797,331.976,145.523,331.976"/>
	<path fill="#F0AE67" d="M76.548,299.905c-2.27,0-2.274,3.156,0,3.156C78.817,303.062,78.821,299.905,76.548,299.905
		 M76.744,302.447c-1.137,0-1.134-1.578,0-1.578C77.881,300.869,77.879,302.447,76.744,302.447"/>
	<path fill="#F0AE67" d="M66.751,294.299c-2.271,0-2.273,3.153,0,3.153C69.02,297.452,69.024,294.299,66.751,294.299
		 M66.947,294.562c1.136,0,1.134,1.577,0,1.577C65.81,296.139,65.811,294.562,66.947,294.562"/>
	<path fill="#F0AE67" d="M57.345,306.741c-2.27,0-2.273,3.153,0,3.153C59.615,309.895,59.619,306.741,57.345,306.741
		 M57.541,309.457h-0.392c-1.137,0-1.135-1.577,0-1.577h0.392C58.678,307.88,58.675,309.457,57.541,309.457"/>
	<path fill="#F0AE67" d="M36.182,278.176c-2.27,0-2.273,3.155,0,3.155C38.451,281.331,38.456,278.176,36.182,278.176
		 M36.378,280.366c-1.137,0-1.134-1.577,0-1.577C37.514,278.789,37.513,280.366,36.378,280.366"/>
	<path fill="#F0AE67" d="M27.168,286.938c-2.27,0-2.273,3.154,0,3.154C29.437,290.093,29.442,286.938,27.168,286.938
		 M26.972,287.552c1.137,0,1.135,1.577,0,1.577C25.836,289.129,25.837,287.552,26.972,287.552"/>
	<path fill="#F0AE67" d="M44.804,261.877c-2.27,0-2.274,3.156,0,3.156C47.073,265.033,47.077,261.877,44.804,261.877
		 M44.608,262.315c1.136,0,1.135,1.577,0,1.577C43.471,263.893,43.473,262.315,44.608,262.315"/>
	<path fill="#F0AE67" d="M61.852,262.58c2.269,0,2.273-3.155,0-3.155C59.582,259.425,59.578,262.58,61.852,262.58 M62.244,261.44
		c-1.137,0-1.135-1.579,0-1.579C63.379,259.861,63.379,261.44,62.244,261.44"/>
	<path fill="#F0AE67" d="M61.068,256.971c2.27,0,2.272-3.153,0-3.153C58.798,253.817,58.794,256.971,61.068,256.971 M61.068,254.255
		c1.136,0,1.134,1.577,0,1.577C59.931,255.832,59.934,254.255,61.068,254.255"/>
	<path fill="#F0AE67" d="M134.159,247.508c-2.27,0-2.274,3.154,0,3.154C136.428,250.662,136.432,247.508,134.159,247.508
		 M133.963,249.873c-1.137,0-1.136-1.577,0-1.577S135.097,249.873,133.963,249.873"/>
	<path fill="#F0AE67" d="M153.753,249.085c1.932,0,2.216-2.279,0.858-2.96c0.386,0.453,0.169,1.295-0.662,1.295
		c-0.961,0-1.099-1.121-0.433-1.469C151.493,246.17,151.565,249.085,153.753,249.085"/>
	<path fill="#F0AE67" d="M154.341,256.971c2.27,0,2.273-3.153,0-3.153C152.072,253.817,152.068,256.971,154.341,256.971
		 M154.733,256.182h-0.393c-1.136,0-1.134-1.577,0-1.577h0.393C155.87,254.604,155.867,256.182,154.733,256.182"/>
	<path fill="#F0AE67" d="M191.376,275.196c-2.269,0-2.273,3.154,0,3.154C193.646,278.351,193.649,275.196,191.376,275.196
		 M191.964,277.212c-1.136,0-1.135-1.577,0-1.577C193.101,275.635,193.1,277.212,191.964,277.212"/>
	<path fill="#F0AE67" d="M200.194,279.227c-2.27,0-2.273,3.155,0,3.155C202.464,282.382,202.468,279.227,200.194,279.227"/>
	<path fill="#F0AE67" d="M96.339,238.044c-2.27,0-2.273,3.153,0,3.153C98.608,241.197,98.613,238.044,96.339,238.044 M96.731,240.41
		c-1.137,0-1.135-1.577,0-1.577C97.867,238.833,97.866,240.41,96.731,240.41"/>
	<path fill="#F0AE67" d="M34.81,262.534c1.702,0,1.706-2.365,0-2.365C33.108,260.169,33.105,262.534,34.81,262.534"/>
	<path fill="#F0AE67" d="M51.466,252.983c-1.702,0-1.705,2.368,0,2.368C53.168,255.352,53.171,252.983,51.466,252.983
		 M51.663,255.13c-1.137,0-1.135-1.577,0-1.577C52.799,253.553,52.796,255.13,51.663,255.13"/>
	<path fill="#F0AE67" d="M104.177,267.617c1.702,0,1.705-2.367,0-2.367C102.476,265.25,102.473,267.617,104.177,267.617"/>
	<path fill="#F0AE67" d="M123.577,272.874c1.702,0,1.705-2.366,0-2.366C121.874,270.508,121.872,272.874,123.577,272.874"/>
	<path fill="#F0AE67" d="M143.171,248.777c-1.701,0-1.705,2.367,0,2.367C144.875,251.145,144.877,248.777,143.171,248.777"/>
	<path fill="#F0AE67" d="M162.375,247.814c1.702,0,1.705-2.366,0-2.366C160.673,245.448,160.67,247.814,162.375,247.814"/>
	<path fill="#F0AE67" d="M201.761,287.42c1.703,0,1.706-2.366,0-2.366C200.06,285.054,200.058,287.42,201.761,287.42"/>
	<path fill="#F0AE67" d="M166.491,299.073c-1.702,0-1.705,2.366,0,2.366C168.192,301.439,168.195,299.073,166.491,299.073"/>
	<path fill="#F0AE67" d="M149.246,291.188c-1.702,0-1.705,2.365,0,2.365C150.948,293.553,150.951,291.188,149.246,291.188"/>
	<path fill="#F0AE67" d="M74,308.712c-1.702,0-1.705,2.366,0,2.366C75.703,311.078,75.706,308.712,74,308.712"/>
	<path fill="#F0AE67" d="M45.784,306.608c-1.702,0-1.705,2.366,0,2.366C47.486,308.975,47.489,306.608,45.784,306.608"/>
	<path fill="#F0AE67" d="M34.614,287.683c-1.702,0-1.705,2.365,0,2.365C36.316,290.048,36.32,287.683,34.614,287.683"/>
	<path fill="#F0AE67" d="M24.229,297.146c-1.702,0-1.706,2.366,0,2.366C25.931,299.512,25.934,297.146,24.229,297.146"/>
	<path fill="#F0AE67" d="M21.485,281.549c-1.702,0-1.705,2.365,0,2.365C23.188,283.914,23.19,281.549,21.485,281.549
		 M21.485,283.521c-1.136,0-1.134-1.578,0-1.578C22.622,281.943,22.62,283.521,21.485,283.521"/>
	<path fill="#F0AE67" d="M104.961,340.081c-1.703,0-1.705,2.366,0,2.366C106.663,342.447,106.666,340.081,104.961,340.081"/>
	<path fill="#F0AE67" d="M116.522,331.407c1.703,0,1.705-2.366,0-2.366C114.82,329.041,114.817,331.407,116.522,331.407"/>
	<path fill="#F0AE67" d="M91.833,326.237c-1.703,0-1.705,2.365,0,2.365C93.535,328.603,93.538,326.237,91.833,326.237"/>
	<path fill="#F0AE67" d="M104.961,316.772c-1.703,0-1.705,2.367,0,2.367C106.663,319.14,106.666,316.772,104.961,316.772"/>
	<path fill="#F0AE67" d="M125.34,323.258c-1.702,0-1.705,2.366,0,2.366C127.042,325.624,127.046,323.258,125.34,323.258"/>
	<path fill="#F0AE67" d="M141.801,343.06c-1.703,0-1.706,2.366,0,2.366C143.502,345.426,143.506,343.06,141.801,343.06"/>
	<path fill="#F0AE67" d="M85.366,343.235c-1.702,0-1.705,2.367,0,2.367C87.068,345.603,87.071,343.235,85.366,343.235"/>
	<path fill="#F0AE67" d="M49.115,321.154c-1.702,0-1.705,2.365,0,2.365C50.817,323.52,50.82,321.154,49.115,321.154"/>
	<path fill="#F0AE67" d="M85.856,236.686c-1.702,0-1.705,2.367,0,2.367C87.558,239.053,87.561,236.686,85.856,236.686"/>
	<path fill="#F0AE67" d="M173.152,311.603c-1.701,0-1.705,2.367,0,2.367C174.855,313.97,174.858,311.603,173.152,311.603"/>
	<path fill="#F0AE67" d="M197.548,271.647c-1.702,0-1.705,2.365,0,2.365C199.25,274.013,199.254,271.647,197.548,271.647"/>
	<path fill="#F0AE67" d="M108.488,276.38c-1.702,0-1.705,2.365,0,2.365C110.19,278.745,110.193,276.38,108.488,276.38"/>
	<path fill="#F0AE67" d="M18.84,288.339c-1.135,0-1.136,1.578,0,1.578C19.975,289.917,19.977,288.339,18.84,288.339"/>
	<path fill="#F0AE67" d="M29.422,283.083c1.134,0,1.136-1.577,0-1.577C28.288,281.506,28.285,283.083,29.422,283.083"/>
	<path fill="#F0AE67" d="M64.399,303.586c-1.135,0-1.137,1.577,0,1.577C65.534,305.163,65.536,303.586,64.399,303.586"/>
	<path fill="#F0AE67" d="M56.169,301.22c1.134,0,1.136-1.576,0-1.576C55.035,299.644,55.032,301.22,56.169,301.22"/>
	<path fill="#F0AE67" d="M61.166,318.569c-1.135,0-1.137,1.577,0,1.577C62.301,320.146,62.302,318.569,61.166,318.569"/>
	<path fill="#F0AE67" d="M130.533,343.541c-1.134,0-1.136,1.578,0,1.578C131.668,345.119,131.669,343.541,130.533,343.541"/>
	<path fill="#F0AE67" d="M101.728,349.063c-1.134,0-1.136,1.576,0,1.576C102.863,350.639,102.865,349.063,101.728,349.063"/>
	<path fill="#F0AE67" d="M104.667,330.662c1.135,0,1.137-1.578,0-1.578C103.533,329.084,103.531,330.662,104.667,330.662"/>
	<path fill="#F0AE67" d="M141.703,336.707c1.135,0,1.136-1.576,0-1.576C140.567,335.131,140.566,336.707,141.703,336.707"/>
	<path fill="#F0AE67" d="M79.095,303.85c-1.134,0-1.136,1.577,0,1.577C80.23,305.427,80.232,303.85,79.095,303.85"/>
	<path fill="#F0AE67" d="M40.297,281.769c-1.135,0-1.136,1.577,0,1.577C41.432,283.346,41.434,281.769,40.297,281.769"/>
	<path fill="#F0AE67" d="M97.026,270.728c-1.135,0-1.137,1.578,0,1.578C98.16,272.306,98.162,270.728,97.026,270.728"/>
	<path fill="#F0AE67" d="M112.309,265.734c1.136,0,1.137-1.578,0-1.578C111.175,264.156,111.173,265.734,112.309,265.734"/>
	<path fill="#F0AE67" d="M169.038,291.231c-1.135,0-1.137,1.577,0,1.577C170.172,292.809,170.175,291.231,169.038,291.231"/>
	<path fill="#F0AE67" d="M152.578,291.231c-1.135,0-1.137,1.577,0,1.577C153.712,292.809,153.714,291.231,152.578,291.231"/>
	<path fill="#F0AE67" d="M194.021,278.876c-1.134,0-1.136,1.578,0,1.578C195.157,280.454,195.159,278.876,194.021,278.876"/>
	<path fill="#F0AE67" d="M160.514,251.274c1.135,0,1.137-1.576,0-1.576C159.379,249.698,159.377,251.274,160.514,251.274"/>
	<path fill="#F0AE67" d="M137.587,245.755c1.134,0,1.136-1.577,0-1.577C136.453,244.178,136.451,245.755,137.587,245.755"/>
	<path fill="#F0AE67" d="M92.616,234.714c-1.135,0-1.137,1.577,0,1.577C93.751,236.292,93.753,234.714,92.616,234.714"/>
	<path fill="#F0AE67" d="M100.259,234.189c-1.135,0-1.137,1.577,0,1.577C101.393,235.766,101.396,234.189,100.259,234.189"/>
	<path fill="#F0AE67" d="M66.163,256.007c1.134,0,1.136-1.578,0-1.578C65.028,254.429,65.026,256.007,66.163,256.007"/>
	<path fill="#F0AE67" d="M41.473,258.898c1.135,0,1.136-1.578,0-1.578C40.338,257.32,40.336,258.898,41.473,258.898"/>
	<path fill="#F0AE67" d="M56.169,261.79c1.134,0,1.136-1.577,0-1.577C55.035,260.213,55.032,261.79,56.169,261.79"/>
	<path fill="#F0AE67" d="M72.042,252.327c-1.135,0-1.137,1.577,0,1.577C73.176,253.904,73.178,252.327,72.042,252.327"/>
	<path fill="#F0AE67" d="M42.061,276.247c-1.134,0-1.137,1.577,0,1.577C43.195,277.824,43.197,276.247,42.061,276.247"/>
	<path fill="#F5B169" d="M122.597,279.534c-0.567,0-0.568,0.788,0,0.788C123.164,280.322,123.166,279.534,122.597,279.534"/>
	<path fill="#F5B169" d="M128.77,273.75c-0.567,0-0.568,0.79,0,0.79C129.337,274.54,129.338,273.75,128.77,273.75"/>
	<path fill="#F5B169" d="M107.313,273.75c0.567,0,0.568-0.787,0-0.787C106.746,272.963,106.745,273.75,107.313,273.75"/>
	<path fill="#F5B169" d="M117.306,263.499c0.567,0,0.568-0.789,0-0.789C116.74,262.71,116.738,263.499,117.306,263.499"/>
	<path fill="#F5B169" d="M91.735,272.7c0.567,0,0.568-0.79,0-0.79C91.167,271.91,91.167,272.7,91.735,272.7"/>
	<path fill="#F5B169" d="M125.536,249.041c0.567,0,0.568-0.789,0-0.789C124.97,248.252,124.968,249.041,125.536,249.041"/>
	<path fill="#F5B169" d="M161.983,258.24c-0.567,0-0.568,0.79,0,0.79C162.551,259.03,162.552,258.24,161.983,258.24"/>
	<path fill="#F5B169" d="M159.632,255.35c-0.567,0-0.567,0.789,0,0.789S160.2,255.35,159.632,255.35"/>
	<path fill="#F5B169" d="M144.054,255.35c-0.566,0-0.568,0.789,0,0.789C144.621,256.139,144.622,255.35,144.054,255.35"/>
	<path fill="#F5B169" d="M147.581,250.092c-0.567,0-0.568,0.79,0,0.79C148.148,250.882,148.149,250.092,147.581,250.092"/>
	<path fill="#F5B169" d="M150.566,241.311c-0.07-0.09-0.18-0.156-0.34-0.156c-0.084,0-0.151,0.021-0.21,0.052
		c-0.101,0.04-0.187,0.115-0.231,0.233c-0.1,0.263-0.2,0.524-0.3,0.787c-0.184,0.48,0.668,0.688,0.851,0.209
		c0.09-0.235,0.18-0.474,0.27-0.71c0.012-0.023,0.021-0.047,0.029-0.072c0-0.002,0.001-0.003,0.001-0.005
		c0.002-0.007,0-0.014,0.002-0.02c0.007-0.03,0.014-0.06,0.014-0.09C150.655,241.447,150.625,241.37,150.566,241.311"/>
	<path fill="#F5B169" d="M141.996,244.309c0.567,0,0.568-0.787,0-0.787C141.429,243.521,141.428,244.309,141.996,244.309"/>
	<path fill="#F5B169" d="M107.901,237.737c0.567,0,0.568-0.789,0-0.789C107.333,236.949,107.333,237.737,107.901,237.737"/>
	<path fill="#F5B169" d="M104.373,239.053c0.568,0,0.569-0.789,0-0.789C103.806,238.264,103.806,239.053,104.373,239.053"/>
	<path fill="#F5B169" d="M87.619,242.207c-0.566,0-0.568,0.787,0,0.787C88.187,242.994,88.188,242.207,87.619,242.207"/>
	<path fill="#F5B169" d="M78.802,240.366c0.567,0,0.568-0.789,0-0.789C78.234,239.578,78.233,240.366,78.802,240.366"/>
	<path fill="#F5B169" d="M67.338,261.133c0.567,0,0.569-0.789,0-0.789C66.771,260.344,66.771,261.133,67.338,261.133"/>
	<path fill="#F5B169" d="M66.457,265.602c-0.567,0-0.568,0.789,0,0.789C67.024,266.391,67.025,265.602,66.457,265.602"/>
	<path fill="#F5B169" d="M53.524,265.339c-0.567,0-0.568,0.788,0,0.788C54.091,266.127,54.092,265.339,53.524,265.339"/>
	<path fill="#F5B169" d="M34.418,265.339h-0.293c-0.567,0-0.569,0.788,0,0.788h0.293C34.985,266.127,34.986,265.339,34.418,265.339"
		/>
	<path fill="#F5B169" d="M48.821,262.71c0.567,0,0.568-0.788,0-0.788C48.253,261.922,48.252,262.71,48.821,262.71"/>
	<path fill="#F5B169" d="M68.22,306.346c-0.567,0-0.568,0.79,0,0.79C68.788,307.136,68.789,306.346,68.22,306.346"/>
	<path fill="#F5B169" d="M69.396,298.723c-0.567,0-0.568,0.789,0,0.789C69.963,299.512,69.965,298.723,69.396,298.723"/>
	<path fill="#F5B169" d="M62.636,298.198c-0.567,0-0.569,0.787,0,0.787C63.203,298.985,63.204,298.198,62.636,298.198"/>
	<path fill="#F5B169" d="M52.936,308.975c-0.566,0-0.568,0.789,0,0.789C53.502,309.764,53.504,308.975,52.936,308.975"/>
	<path fill="#F5B169" d="M55.287,304.77c-0.567,0-0.567,0.788,0,0.788S55.855,304.77,55.287,304.77"/>
	<path fill="#F5B169" d="M61.166,311.867c0.567,0,0.568-0.789,0-0.789C60.599,311.078,60.598,311.867,61.166,311.867"/>
	<path fill="#F5B169" d="M87.619,302.403c-0.566,0-0.568,0.788,0,0.788C88.187,303.191,88.188,302.403,87.619,302.403"/>
	<path fill="#F5B169" d="M107.901,318.701c-0.568,0-0.568,0.789,0,0.789C108.468,319.49,108.469,318.701,107.901,318.701"/>
	<path fill="#F5B169" d="M99.083,322.645c-0.567,0-0.568,0.789,0,0.789C99.65,323.434,99.651,322.645,99.083,322.645"/>
	<path fill="#F5B169" d="M97.026,329.479c-0.567,0-0.569,0.788,0,0.788C97.592,330.267,97.594,329.479,97.026,329.479"/>
	<path fill="#F5B169" d="M115.543,324.747c-0.568,0-0.569,0.788,0,0.788C116.11,325.535,116.11,324.747,115.543,324.747"/>
	<path fill="#F5B169" d="M123.479,327.901c-0.567,0-0.568,0.788,0,0.788C124.046,328.689,124.047,327.901,123.479,327.901"/>
	<path fill="#F5B169" d="M128.181,328.689h-0.293c-0.567,0-0.569,0.789,0,0.789h0.293
		C128.75,329.479,128.75,328.689,128.181,328.689"/>
	<path fill="#F5B169" d="M137,329.74c-0.567,0-0.568,0.79,0,0.79C137.566,330.53,137.567,329.74,137,329.74"/>
	<path fill="#F5B169" d="M29.275,293.334v0.263c0,0.508,0.881,0.509,0.881,0v-0.263C30.156,292.827,29.275,292.827,29.275,293.334"
		/>
	<path fill="#F5B169" d="M35.594,291.1c-0.567,0-0.568,0.789,0,0.789C36.162,291.889,36.162,291.1,35.594,291.1"/>
	<path fill="#F5B169" d="M39.709,288.734c0.567,0,0.568-0.789,0-0.789C39.142,287.945,39.141,288.734,39.709,288.734"/>
	<path fill="#F5B169" d="M25.601,281.11c0.567,0,0.568-0.788,0-0.788C25.034,280.322,25.033,281.11,25.601,281.11"/>
	<path fill="#F5B169" d="M19.722,296.357c-0.567,0-0.568,0.788,0,0.788C20.289,297.146,20.291,296.357,19.722,296.357"/>
	<path fill="#F5B169" d="M77.038,341.045c-0.567,0-0.568,0.788,0,0.788C77.605,341.833,77.606,341.045,77.038,341.045"/>
	<path fill="#F5B169" d="M78.802,352.084c-0.567,0-0.568,0.79,0,0.79C79.369,352.874,79.37,352.084,78.802,352.084"/>
	<path fill="#F5B169" d="M92.028,352.084c-0.567,0-0.568,0.79,0,0.79C92.596,352.874,92.597,352.084,92.028,352.084"/>
	<path fill="#F5B169" d="M112.016,357.605c-0.567,0-0.569,0.788,0,0.788C112.583,358.394,112.584,357.605,112.016,357.605"/>
	<path fill="#F5B169" d="M48.968,329.348v0.262c0,0.508,0.881,0.509,0.881,0v-0.262C49.849,328.84,48.968,328.839,48.968,329.348"/>
	<path fill="#F5B169" d="M42.354,335.525c-0.567,0-0.568,0.788,0,0.788C42.921,336.313,42.922,335.525,42.354,335.525"/>
	<path fill="#F5B169" d="M34.713,326.325c-0.567,0-0.569,0.787,0,0.787C35.279,327.112,35.281,326.325,34.713,326.325"/>
	<path fill="#F5B169" d="M36.182,317.649c-0.567,0-0.568,0.789,0,0.789C36.75,318.438,36.75,317.649,36.182,317.649"/>
	<path fill="#F5B169" d="M26.776,324.484c-0.567,0-0.568,0.788,0,0.788C27.343,325.272,27.345,324.484,26.776,324.484"/>
	<path fill="#F5B169" d="M31.185,338.68c-0.567,0-0.568,0.788,0,0.788C31.752,339.468,31.753,338.68,31.185,338.68"/>
	<path fill="#F5B169" d="M173.741,299.512c0.567,0,0.568-0.789,0-0.789C173.173,298.723,173.173,299.512,173.741,299.512"/>
	<path fill="#D37739" d="M170.507,305.558c-0.567,0-0.568,0.788,0,0.788C171.075,306.346,171.076,305.558,170.507,305.558"/>
	<path fill="#F5B169" d="M182.265,312.918c-0.567,0-0.569,0.789,0,0.789C182.832,313.707,182.833,312.918,182.265,312.918"/>
	<path fill="#F5B169" d="M188.584,306.215v0.263c0,0.508,0.881,0.508,0.881,0v-0.263
		C189.465,305.707,188.584,305.706,188.584,306.215"/>
	<path fill="#F5B169" d="M193.434,313.97c-0.567,0-0.568,0.787,0,0.787C194.001,314.757,194.002,313.97,193.434,313.97"/>
	<path fill="#F5B169" d="M188.731,318.438c-0.567,0-0.568,0.788,0,0.788S189.299,318.438,188.731,318.438"/>
	<path fill="#F5B169" d="M192.552,327.112h-0.294c-0.568,0-0.568,0.789,0,0.789h0.294
		C193.12,327.901,193.121,327.112,192.552,327.112"/>
	<path fill="#F5B169" d="M202.546,313.707c-0.567,0-0.568,0.788,0,0.788C203.113,314.495,203.114,313.707,202.546,313.707"/>
	<path fill="#F5B169" d="M209.012,302.929c-0.567,0-0.569,0.788,0,0.788C209.579,303.717,209.58,302.929,209.012,302.929"/>
	<path fill="#F5B169" d="M203.134,297.408c-0.567,0-0.568,0.79,0,0.79C203.701,298.198,203.702,297.408,203.134,297.408"/>
	<path fill="#F5B169" d="M205.191,296.095c-0.567,0-0.568,0.788,0,0.788C205.758,296.883,205.759,296.095,205.191,296.095"/>
	<path fill="#F5B169" d="M202.839,294.78c0.568,0,0.569-0.789,0-0.789C202.273,293.991,202.271,294.78,202.839,294.78"/>
	<path fill="#F5B169" d="M207.396,282.031v-0.263c0-0.508-0.882-0.51-0.882,0v0.263
		C206.513,282.537,207.396,282.538,207.396,282.031"/>
	<path fill="#F5B169" d="M211.657,287.157c-0.567,0-0.568,0.788,0,0.788C212.225,287.945,212.226,287.157,211.657,287.157"/>
	<path fill="#F5B169" d="M212.246,313.182c-0.567,0-0.568,0.788,0,0.788C212.813,313.97,212.813,313.182,212.246,313.182"/>
	<path fill="#F5B169" d="M213.127,318.701c-0.567,0-0.569,0.789,0,0.789C213.694,319.49,213.696,318.701,213.127,318.701"/>
	<path fill="#F5B169" d="M152.578,242.731c0.566,0,0.568-0.787,0-0.787C152.011,241.944,152.01,242.731,152.578,242.731"/>
	<path fill="#F5B169" d="M109.076,258.898c-1.135,0-1.137,1.577,0,1.577C110.211,260.476,110.213,258.898,109.076,258.898"/>
	<path fill="#F5B169" d="M138.469,274.933c-1.135,0-1.137,1.577,0,1.577C139.604,276.51,139.606,274.933,138.469,274.933"/>
	<path fill="#F5B169" d="M84.092,296.488c1.135,0,1.137-1.577,0-1.577C82.958,294.911,82.956,296.488,84.092,296.488"/>
	<path fill="#F5B169" d="M83.798,307.003c1.135,0,1.136-1.576,0-1.576C82.664,305.427,82.662,307.003,83.798,307.003"/>
	<path fill="#F5B169" d="M100.651,269.852c1.134,0,1.136-1.577,0-1.577C99.516,268.274,99.514,269.852,100.651,269.852"/>
	<path fill="#F5B169" d="M118.678,270.203c1.134,0,1.137-1.579,0-1.579C117.543,268.624,117.542,270.203,118.678,270.203"/>
	<path fill="#F5B169" d="M128.868,272.306c1.134,0,1.137-1.578,0-1.578C127.733,270.728,127.731,272.306,128.868,272.306"/>
	<path fill="#F5B169" d="M114.367,280.541c-1.134,0-1.136,1.576,0,1.576C115.501,282.117,115.504,280.541,114.367,280.541"/>
	<path fill="#F5B169" d="M127.692,279.49c-1.134,0-1.136,1.577,0,1.577C128.827,281.067,128.828,279.49,127.692,279.49"/>
	<path fill="#FFC689" d="M101.435,273.707c1.134,0,1.136-1.577,0-1.577C100.3,272.13,100.298,273.707,101.435,273.707"/>
	<path fill="#FFC689" d="M114.758,269.852c1.135,0,1.137-1.577,0-1.577C113.625,268.274,113.622,269.852,114.758,269.852"/>
	<path fill="#FFC689" d="M118.286,275.985c-1.135,0-1.137,1.577,0,1.577C119.421,277.563,119.422,275.985,118.286,275.985"/>
	<path fill="#FFC689" d="M133.963,248.296c-1.136,0-1.137,1.578,0,1.578C135.097,249.874,135.099,248.296,133.963,248.296"/>
	<path fill="#FFC689" d="M154.341,256.182h0.393c1.134,0,1.136-1.577,0-1.577h-0.393
		C153.208,254.604,153.204,256.182,154.341,256.182"/>
	<path fill="#FFC689" d="M153.949,247.419c0.831,0,1.048-0.841,0.662-1.294c-0.141-0.166-0.356-0.282-0.662-0.282
		c-0.174,0-0.312,0.046-0.433,0.108C152.851,246.299,152.988,247.419,153.949,247.419"/>
	<path fill="#FFC689" d="M96.731,238.833c-1.135,0-1.137,1.577,0,1.577C97.866,240.41,97.867,238.833,96.731,238.833"/>
	<path fill="#FFC689" d="M62.244,261.44c1.135,0,1.136-1.579,0-1.579C61.108,259.861,61.107,261.44,62.244,261.44"/>
	<path fill="#FFC689" d="M61.068,255.832c1.134,0,1.136-1.577,0-1.577C59.934,254.255,59.931,255.832,61.068,255.832"/>
	<path fill="#FFC689" d="M44.608,262.315c-1.135,0-1.137,1.577,0,1.577C45.743,263.893,45.744,262.315,44.608,262.315"/>
	<path fill="#FFC689" d="M51.663,253.553c-1.135,0-1.137,1.577,0,1.577C52.796,255.13,52.799,253.553,51.663,253.553"/>
	<path fill="#FFC689" d="M26.972,287.552c-1.135,0-1.136,1.577,0,1.577C28.107,289.129,28.109,287.552,26.972,287.552"/>
	<path fill="#FFC689" d="M36.378,278.789c-1.134,0-1.137,1.577,0,1.577C37.513,280.366,37.514,278.789,36.378,278.789"/>
	<path fill="#FFC689" d="M21.485,281.943c-1.134,0-1.136,1.578,0,1.578C22.62,283.521,22.622,281.943,21.485,281.943"/>
	<path fill="#FFC689" d="M66.947,294.562c-1.136,0-1.137,1.577,0,1.577C68.081,296.139,68.083,294.562,66.947,294.562"/>
	<path fill="#FFC689" d="M57.541,307.88h-0.392c-1.135,0-1.137,1.577,0,1.577h0.392C58.675,309.457,58.678,307.88,57.541,307.88"/>
	<path fill="#FFC689" d="M76.744,300.869c-1.134,0-1.137,1.578,0,1.578C77.879,302.447,77.881,300.869,76.744,300.869"/>
	<path fill="#FFC689" d="M102.609,325.754c-1.134,0-1.136,1.578,0,1.578C103.745,327.332,103.746,325.754,102.609,325.754"/>
	<path fill="#FFC689" d="M111.624,323.651c-1.135,0-1.137,1.577,0,1.577C112.758,325.229,112.76,323.651,111.624,323.651"/>
	<path fill="#FFC689" d="M95.948,335.568c-0.961,0-1.1,1.121-0.435,1.469c0.122,0.063,0.26,0.107,0.435,0.107
		c0.303,0,0.521-0.116,0.662-0.282C96.995,336.409,96.779,335.568,95.948,335.568"/>
	<path fill="#FFC689" d="M83.798,332.765c-1.134,0-1.136,1.577,0,1.577C84.933,334.342,84.935,332.765,83.798,332.765"/>
	<path fill="#FFC689" d="M117.502,339.424c-1.135,0-1.137,1.576,0,1.576C118.637,341,118.639,339.424,117.502,339.424"/>
	<path fill="#FFC689" d="M131.219,333.115c-1.134,0-1.137,1.577,0,1.577C132.354,334.692,132.356,333.115,131.219,333.115"/>
	<path fill="#FFC689" d="M177.366,303.062v0.35c0,1.016,1.764,1.017,1.764,0v-0.35C179.129,302.047,177.366,302.044,177.366,303.062
		"/>
	<path fill="#FFC689" d="M154.244,298.153v0.351c0,1.015,1.763,1.017,1.763,0v-0.351
		C156.007,297.139,154.244,297.137,154.244,298.153"/>
	<path fill="#FFC689" d="M164.139,291.056c-1.134,0-1.136,1.577,0,1.577C165.274,292.633,165.276,291.056,164.139,291.056"/>
	<path fill="#FFC689" d="M191.964,275.635c-1.135,0-1.136,1.577,0,1.577C193.1,277.212,193.101,275.635,191.964,275.635"/>
	<path fill="#FFC689" d="M95.556,274.583c-1.134,0-1.136,1.577,0,1.577C96.69,276.16,96.692,274.583,95.556,274.583"/>
	<path fill="#FFC689" d="M123.38,266.696c1.135,0,1.137-1.576,0-1.576C122.246,265.12,122.244,266.696,123.38,266.696"/>
	<path fill="#FFC689" d="M117.502,285.447c-1.135,0-1.137,1.578,0,1.578C118.637,287.025,118.639,285.447,117.502,285.447"/>
	<path fill="#D37739" d="M40.297,306.828c-1.135,0-1.136,1.577,0,1.577C41.432,308.405,41.434,306.828,40.297,306.828"/>
	<path fill="#FFC689" d="M42.648,314.188c-1.135,0-1.136,1.577,0,1.577C43.783,315.766,43.785,314.188,42.648,314.188"/>
	<path fill="#FFC689" d="M38.729,326.104c-1.135,0-1.137,1.578,0,1.578C39.864,327.683,39.865,326.104,38.729,326.104"/>
	<path fill="#FFC689" d="M23.837,317.343c-1.134,0-1.136,1.576,0,1.576C24.972,318.919,24.974,317.343,23.837,317.343"/>
	<path fill="#FFC689" d="M21.094,311.385c-1.135,0-1.137,1.576,0,1.576C22.228,312.961,22.23,311.385,21.094,311.385"/>
	<path fill="#FFC689" d="M15.606,309.981c-1.134,0-1.136,1.578,0,1.578C16.742,311.56,16.744,309.981,15.606,309.981"/>
	<path fill="#FFC689" d="M55.973,340.476c-1.134,0-1.136,1.577,0,1.577C57.107,342.053,57.11,340.476,55.973,340.476"/>
	<path fill="#FFC689" d="M59.5,350.288c-1.134,0-1.136,1.578,0,1.578C60.635,351.866,60.637,350.288,59.5,350.288"/>
	<path fill="#FFC689" d="M67.73,349.939c-1.135,0-1.136,1.576,0,1.576C68.865,351.516,68.867,349.939,67.73,349.939"/>
	<path fill="#FFC689" d="M70.081,345.031c-1.134,0-1.136,1.577,0,1.577C71.216,346.608,71.219,345.031,70.081,345.031"/>
	<path fill="#FFC689" d="M100.651,353.794c-1.135,0-1.137,1.577,0,1.577C101.785,355.371,101.787,353.794,100.651,353.794"/>
	<path fill="#FFC689" d="M107.705,362.557c-1.135,0-1.136,1.577,0,1.577C108.839,364.134,108.841,362.557,107.705,362.557"/>
	<path fill="#FFC689" d="M117.894,354.145c-1.134,0-1.136,1.577,0,1.577C119.028,355.722,119.03,354.145,117.894,354.145"/>
	<path fill="#FFC689" d="M115.935,350.99c-1.134,0-1.137,1.578,0,1.578C117.069,352.568,117.071,350.99,115.935,350.99"/>
	<path fill="#FFC689" d="M67.338,315.415c1.135,0,1.136-1.578,0-1.578h-0.392c-1.135,0-1.137,1.578,0,1.578H67.338z"/>
	<path fill="#FFC689" d="M59.5,295.438c1.135,0,1.137-1.576,0-1.576C58.366,293.861,58.364,295.438,59.5,295.438"/>
	<path fill="#FFC689" d="M63.419,290.354c-1.135,0-1.137,1.577,0,1.577C64.554,291.932,64.556,290.354,63.419,290.354"/>
	<path fill="#FFC689" d="M137.098,326.455c-1.135,0-1.136,1.579,0,1.579C138.232,328.034,138.234,326.455,137.098,326.455"/>
	<path fill="#FFC689" d="M118.678,318.395c-1.135,0-1.136,1.577,0,1.577C119.812,319.972,119.814,318.395,118.678,318.395"/>
	<path fill="#FFC689" d="M156.301,338.723c-1.135,0-1.137,1.577,0,1.577C157.435,340.3,157.438,338.723,156.301,338.723"/>
	<path fill="#B35830" d="M153.165,343.63c-1.134,0-1.135,1.577,0,1.577S154.302,343.63,153.165,343.63"/>
	<path fill="#FFC689" d="M146.111,352.393c-1.134,0-1.137,1.576,0,1.576C147.246,353.969,147.248,352.393,146.111,352.393"/>
	<path fill="#FFC689" d="M170.018,345.383c-1.135,0-1.137,1.577,0,1.577C171.152,346.96,171.155,345.383,170.018,345.383"/>
	<path fill="#FFC689" d="M186.478,325.404c-1.135,0-1.136,1.577,0,1.577C187.612,326.981,187.614,325.404,186.478,325.404"/>
	<path fill="#FFC689" d="M195.491,320.497c-1.135,0-1.137,1.577,0,1.577C196.626,322.074,196.628,320.497,195.491,320.497"/>
	<path fill="#FFC689" d="M190.397,311.034c-1.135,0-1.137,1.577,0,1.577C191.531,312.611,191.533,311.034,190.397,311.034"/>
	<path fill="#FFC689" d="M200.978,301.921c-1.135,0-1.136,1.577,0,1.577C202.113,303.498,202.115,301.921,200.978,301.921"/>
	<path fill="#FFC689" d="M208.033,297.715c-1.135,0-1.137,1.577,0,1.577C209.167,299.292,209.169,297.715,208.033,297.715"/>
	<path fill="#FFC689" d="M195.1,286.85c-1.136,0-1.137,1.577,0,1.577C196.234,288.427,196.236,286.85,195.1,286.85"/>
	<path fill="#FFC689" d="M168.058,249.698c-1.135,0-1.136,1.577,0,1.577C169.192,251.275,169.194,249.698,168.058,249.698"/>
	<path fill="#FFC689" d="M157.477,240.235c-1.134,0-1.136,1.576,0,1.576C158.611,241.812,158.613,240.235,157.477,240.235"/>
	<path fill="#FFC689" d="M144.152,242.162c1.135,0,1.136-1.576,0-1.576C143.017,240.586,143.016,242.162,144.152,242.162"/>
	<path fill="#FFC689" d="M104.569,235.153c1.135,0,1.136-1.577,0-1.577C103.435,233.576,103.433,235.153,104.569,235.153"/>
	<path fill="#FFC689" d="M54.406,248.997c-1.134,0-1.137,1.577,0,1.577C55.541,250.574,55.542,248.997,54.406,248.997"/>
	<path fill="#FFC689" d="M45.784,254.079c1.134,0,1.137-1.576,0-1.576C44.649,252.503,44.647,254.079,45.784,254.079"/>
	<path fill="#FFC689" d="M45.784,257.935c1.134,0,1.137-1.576,0-1.576C44.649,256.358,44.647,257.935,45.784,257.935"/>
	<path fill="#FFC689" d="M14.431,289.479c1.135,0,1.137-1.577,0-1.577C13.297,287.901,13.295,289.479,14.431,289.479"/>
	<path fill="#FFC689" d="M13.647,291.757c-1.135,0-1.137,1.577,0,1.577C14.782,293.334,14.784,291.757,13.647,291.757"/>
	<path fill="#FFC689" d="M30.107,298.416c-1.134,0-1.136,1.578,0,1.578C31.242,299.994,31.244,298.416,30.107,298.416"/>
	<path fill="#FFC689" d="M28.931,305.427c-1.134,0-1.135,1.576,0,1.576S30.068,305.427,28.931,305.427"/>
	<path fill="#FFC689" d="M154.341,302.271c-1.133,0-1.137,1.578,0,1.578C155.476,303.85,155.478,302.271,154.341,302.271"/>
	<path fill="#FFC689" d="M157.477,304.024c-1.134,0-1.136,1.577,0,1.577C158.611,305.602,158.613,304.024,157.477,304.024"/>
	<path fill="#FFC689" d="M161.004,298.065c-1.135,0-1.137,1.578,0,1.578C162.139,299.644,162.14,298.065,161.004,298.065"/>
	<path fill="#FFC689" d="M146.895,293.509c-1.134,0-1.136,1.577,0,1.577C148.03,295.086,148.031,293.509,146.895,293.509"/>
	<path fill="#FFC689" d="M166.491,309.281c-1.135,0-1.136,1.577,0,1.577C167.625,310.858,167.626,309.281,166.491,309.281"/>
	<path fill="#FFC689" d="M180.599,295.612c-1.135,0-1.136,1.576,0,1.576C181.734,297.188,181.735,295.612,180.599,295.612"/>
	<path fill="#FFC689" d="M179.031,319.445c-1.134,0-1.136,1.577,0,1.577C180.166,321.022,180.168,319.445,179.031,319.445"/>
	<path fill="#E2752B" d="M63.224,342.69c0,0-0.034-8.831,9.753-13.538c9.787-4.707,5.112-4.738,11.214-7.96
		c6.102-3.223,5.89-1.722,10.513-6.386c4.624-4.666,12.607-8.802,16.068-9.294c3.461-0.491,9.54,6.657,24.042,12.116
		c14.503,5.461,26.57,11.437,30.399,14.021c3.828,2.583,15.732,17.087,15.732,17.087s-15.952-12.969-30.189-18.179
		c-14.237-5.209-31.809-13.189-33.976-14.545c-1.012-0.631-2.25-1.646-3.284-2.548c-1.429-1.248-3.44-1.543-5.18-0.79
		c-1.557,0.674-3.354,1.619-4.5,2.765c-2.38,2.381-2.982,4.841-8.064,6.396c-5.083,1.556-7.502,6.034-12.805,7.973
		C77.645,331.748,66.495,334.661,63.224,342.69"/>
	<path fill="#E2752B" d="M94.35,301.658c0,0-7.021-6.401-9.303-7.68c-2.284-1.279-8.823-2.88-11.325-3.886
		c-2.503-1.008-10.499-4.923-10.499-4.923s-10.251,6.151-13.375,8.296c-3.123,2.145-18.56,12.574-16.512,12.88
		c2.047,0.306,19.073-9.547,22.304-11.697c3.232-2.15,7.131-4.79,7.131-4.79s8.689,2.969,11.229,3.607s7.503,1.413,10.944,3.986
		C88.385,300.028,94.292,303.39,94.35,301.658"/>
	<path fill="#E2752B" d="M48.111,284.01c0,0-0.108,1.677-2.327,4.329c-2.22,2.654-4.227,4.943-5.23,7.011
		c-1.004,2.068-4.197,8.604-4.959,9.024c-0.763,0.421,0.291-3.334,1.998-7.229s2.411-6.478,4.969-8.455
		C45.119,286.713,48.111,284.01,48.111,284.01"/>
	<path fill="#E2752B" d="M84.579,252.825c0,0-5.052,3.171-10.021,7.519c-4.969,4.351-9.962,11.173-9.962,11.173
		s-14.703-2.706-19.988-2.13c-5.284,0.575-16.707,4.485-17.635,3.969c-0.928-0.515,9.149-4.211,13.649-5.081
		c4.5-0.871,20.12,0.233,21.946-0.657C64.394,266.726,86.091,248.486,84.579,252.825"/>
	<path fill="#E2752B" d="M140.666,276.773c-0.986-1.541-9.317-9.622-15.44-12.282c-6.123-2.659-15.76-4.831-18.671-4.147
		c-2.911,0.686-9.285,3.356-12.748,5.258c-3.463,1.901-10.542,7.928-11.183,8.105c-0.524,0.145,2.291,1.379,3.325,1.82
		c0,0,0.094,0.064,0.317,0.134c0.035,0.015,0.056,0.023,0.056,0.023l0.004-0.01c0.174,0.05,0.431,0.093,0.762,0.118
		c2.198,0.665,11.398,3.512,16.456,6.088c5.771,2.938,16.696,6.462,18.463,6.636c1.767,0.174,4.479-6.809,7.713-7.763
		C132.955,279.8,141.651,278.314,140.666,276.773 M128.544,279.261c-1.563,1.469-6.819,7.604-6.819,7.604s-13.401-5.42-17.015-6.324
		c-3.47-0.868-16.338-6.216-17.357-6.64c-0.077-0.069-0.17-0.139-0.285-0.2l0.082-0.219l0.896-0.52c0,0,6.99-6.337,12.035-8.019
		c5.043-1.682,7.979-3.149,7.979-3.149s9.707,1.544,17.279,5.081c7.573,3.539,12.279,9.822,12.279,9.822
		S130.106,277.792,128.544,279.261"/>
	<path fill="#E2752B" d="M138.469,292.409c0,0,3.444-0.96,7.258-1.967c3.815-1.005,11.218-2.711,12.648-3.577
		c1.431-0.866,1.631-1.318,1.631-1.318s13.533,4.22,18.436,7.379c4.902,3.162,12.892,6.775,11.988,5.929
		c-0.906-0.848-6.591-6.495-12.184-8.659c-5.592-2.163-18.654-6.944-18.654-6.944s-4.248,3.313-9.069,4.141
		C145.703,288.221,135.219,291.392,138.469,292.409"/>
	<path fill="#E2752B" d="M197.075,265.724c0,0-4.846,2.924-7.179,3.374c-2.334,0.452-15.246,1.581-18.784,3.35
		c-3.538,1.77-5.834,5.903-5.834,5.903s11.2,4.035,14.672,5.974c3.473,1.938,7.376,5.552,7.376,5.552s-3.753-4.728-8.797-7.783
		c-5.044-3.058-9.716-4.881-9.716-4.881s-0.267-2.839,4.253-3.199c4.521-0.361,15.524-2.394,18.361-3.711
		C194.263,268.984,197.075,265.724,197.075,265.724"/>
	<path fill="#E2752B" d="M129.719,252.5c0,0,11.416,1.076,18.042,4.376c6.625,3.301,8.287,4.298,8.761,3.297
		s5.895-5.424,9.559-6.048c3.664-0.624,6.538-0.109,6.538-0.109s-4.581,1.644-9.649,4.053c-5.07,2.408-5.736,6.449-6.344,6.499
		c-0.608,0.051-5.752-4.75-9.943-6.365C142.491,256.587,129.719,252.5,129.719,252.5"/>
	<path fill="#A04613" d="M10.289,327.332c2.633-1.364,2.61,7.063,5.721,9.705c3.112,2.641,4.593,0.154,8.219,4.008
		c3.626,3.853,7.699,10.986,10.581,11.435c2.883,0.449,6.797-4.88,10.11,0.395c3.313,5.274,4.336,11.799,11.905,12.702
		c7.569,0.904,21.279-7.273,27.825-2.232c6.546,5.044,17.47,11.268,28.17,10.465c10.699-0.805,9.467-7.63,18.564-6.826
		c9.099,0.802,24.658,5.119,30.681-0.602c6.023-5.723,5.656-9.838,11.31-10.14c5.655-0.3,15.901-0.895,18.458-4.463
		c2.555-3.567,4.362-8.483,10.084-11.697c5.721-3.214,9.828-5.2,10.183-8.674c0.357-3.473,6.576,16.2-24.641,29.652
		c-31.216,13.451-24.079,14.153-50.886,18.671s-46.381,2.408-61.037-0.603c-14.656-3.012-40.061-13.652-50.848-24.694
		C13.902,343.392,4.767,330.19,10.289,327.332"/>
</g>
<g>
	<path fill="#D4D1D2" d="M426.056,462.217c-8.917-4.767-9.444-15.968-9.444-15.968v-90.572c0-8.033,5.588-13.435,10.265-16.566
		c99.647-21.513,35.209-151.199,35.209-151.199h-50.707h-2.068h-50.709c0,0-64.441,129.686,35.208,151.199
		c4.675,3.132,10.258,8.533,10.258,16.566v90.572c0,0-0.524,11.201-9.438,15.968c-28.15,1.295-49.004,5.988-49.004,11.579
		c0,6.597,28.977,11.942,64.716,11.942c35.748,0,64.718-5.346,64.718-11.942C475.058,468.205,454.203,463.512,426.056,462.217"/>
	<path fill="#972E36" d="M344.342,247.193c0,0-15.729,87.893,66,87.893c81.726,0,64.632-89.147,64.632-89.147
		s-20.987-4.348-36.329-4.169c-11.352,0.134-33.811,4.658-53.92,6.709C361.521,250.854,344.342,247.193,344.342,247.193"/>
	<g>
		<g>
			<defs>
				<rect id="SVGID_2_" x="351.802" y="187.912" width="28.236" height="116.77"/>
			</defs>
			<clipPath id="SVGID_3_">
				<use xlink:href="#SVGID_2_"  overflow="visible"/>
			</clipPath>
			<path clip-path="url(#SVGID_3_)" fill="#FFFFFF" d="M366.986,187.912c0,0-31.42,65.529-3.866,116.77
				c0,0-13.052-71.117,16.918-116.77H366.986z"/>
		</g>
	</g>
	<g>
		<g>
			<defs>
				<rect id="SVGID_4_" x="409.793" y="187.912" width="72.786" height="297.827"/>
			</defs>
			<clipPath id="SVGID_5_">
				<use xlink:href="#SVGID_4_"  overflow="visible"/>
			</clipPath>
			<path clip-path="url(#SVGID_5_)" fill="#FFFFFF" d="M426.876,339.11c99.647-21.513,35.209-151.199,35.209-151.199h-50.707h-1.585
				v297.824c0.185,0,0.362,0.003,0.547,0.003c35.748,0,64.718-5.346,64.718-11.942c0-5.591-20.854-10.284-49.002-11.579
				c-8.917-4.767-9.444-15.968-9.444-15.968v-90.572C416.611,347.644,422.199,342.242,426.876,339.11"/>
		</g>
	</g>
</g>
</svg>
